<svg xmlns="http://www.w3.org/2000/svg"
         viewBox="0 -96 960 1152">
  <path d="M871 854 800 783V416Q800 416 800.0 416.0Q800 416 800 416H434L354 336L274 256H388L468 336H800Q833 336 856.5 359.5Q880 383 880 416V816Q880 827 878.0 836.5Q876 846 871 854ZM819 1028 687 896H160Q127 896 103.5 872.5Q80 849 80 816V336Q80 303 103.5 279.5Q127 256 160 256L240 336H160Q160 336 160.0 336.0Q160 336 160 336V816Q160 816 160.0 816.0Q160 816 160 816H607L28 236L84 180L876 972ZM368 576Q368 576 368.0 576.0Q368 576 368 576Q368 576 368.0 576.0Q368 576 368 576ZM577 559Q577 559 577.0 559.0Q577 559 577 559Z" />
</svg>