<svg xmlns="http://www.w3.org/2000/svg"
         viewBox="0 -96 960 1152">
  <path d="M710 694 652 636Q666 613 673.0 588.0Q680 563 680 536H760Q760 580 747.0 619.5Q734 659 710 694ZM480 462Q480 462 480.0 462.0Q480 462 480.0 462.0Q480 462 480.0 462.0Q480 462 480 462ZM592 574 520 502V296Q520 279 508.5 267.5Q497 256 480.0 256.0Q463 256 451.5 267.5Q440 279 440 296V422L360 342V296Q360 246 395.0 211.0Q430 176 480 176Q530 176 565.0 211.0Q600 246 600 296V536Q600 547 597.5 556.0Q595 565 592 574ZM440 936V813Q336 799 268.0 720.0Q200 641 200 536H280Q280 619 337.5 677.5Q395 736 480 736Q514 736 544.5 725.5Q575 715 600 696L657 753Q628 776 593.5 792.0Q559 808 520 813V936ZM792 1000 56 264 112 208 848 944Z" />
</svg>