<svg xmlns="http://www.w3.org/2000/svg"
         viewBox="0 -96 960 1152">
  <path d="M200 536Q167 536 143.5 512.5Q120 489 120 456V296Q120 263 143.5 239.5Q167 216 200 216H760Q793 216 816.5 239.5Q840 263 840 296V456Q840 489 816.5 512.5Q793 536 760 536ZM200 936Q167 936 143.5 912.5Q120 889 120 856V696Q120 663 143.5 639.5Q167 616 200 616H760Q793 616 816.5 639.5Q840 663 840 696V856Q840 889 816.5 912.5Q793 936 760 936ZM200 856H760Q760 856 760.0 856.0Q760 856 760 856V696Q760 696 760.0 696.0Q760 696 760 696H200Q200 696 200.0 696.0Q200 696 200 696V856Q200 856 200.0 856.0Q200 856 200 856Z" />
</svg>